<?xml version="1.0" standalone="no"?>
<!DOCTYPE svg PUBLIC "-//W3C//DTD SVG 20010904//EN"
 "http://www.w3.org/TR/2001/REC-SVG-20010904/DTD/svg10.dtd">
<svg version="1.0" xmlns="http://www.w3.org/2000/svg"
 width="260.000000pt" height="280.000000pt" viewBox="0 0 260.000000 280.000000"
 preserveAspectRatio="xMidYMid meet">

<g transform="translate(0.000000,280.000000) scale(0.100000,-0.100000)"
fill="#000000" stroke="none">
<path d="M360 2605 c13 -14 26 -25 28 -25 3 0 -5 11 -18 25 -13 14 -26 25 -28
25 -3 0 5 -11 18 -25z"/>
<path d="M380 2546 c0 -2 9 -6 20 -9 11 -3 18 -1 14 4 -5 9 -34 13 -34 5z"/>
<path d="M430 2505 c0 -5 5 -17 10 -25 5 -8 10 -10 10 -5 0 6 -5 17 -10 25 -5
8 -10 11 -10 5z"/>
<path d="M1168 2413 c7 -3 16 -2 19 1 4 3 -2 6 -13 5 -11 0 -14 -3 -6 -6z"/>
<path d="M1215 2403 c11 -3 24 -10 28 -17 6 -7 7 -6 4 4 -2 8 -14 16 -28 17
-19 1 -20 1 -4 -4z"/>
<path d="M991 2227 c-15 -19 -4 -27 40 -27 47 0 63 19 17 22 -29 1 -28 2 12 8
l45 7 -51 1 c-33 1 -56 -3 -63 -11z"/>
<path d="M1383 2122 c-1 -9 -2 -22 -4 -27 -1 -6 3 -22 9 -37 8 -20 19 -28 37
-28 14 0 25 -4 25 -10 0 -5 13 -10 29 -10 28 0 30 -3 29 -37 0 -59 18 -96 44
-90 14 4 18 3 10 -5 -11 -11 -52 -2 -52 13 0 5 -12 9 -26 9 -19 0 -25 -4 -20
-15 3 -8 1 -15 -5 -15 -6 0 -7 -14 -3 -35 10 -54 -1 -81 -38 -91 -40 -12 -70
-60 -55 -89 15 -29 40 -45 53 -34 8 6 13 3 17 -11 6 -24 40 -26 77 -5 36 21
47 18 53 -13 5 -22 16 -32 61 -51 50 -20 56 -26 56 -52 0 -24 4 -29 24 -29 29
0 39 -24 40 -100 1 -48 4 -55 21 -55 11 0 24 -10 30 -22 5 -13 16 -23 23 -23
9 0 12 -6 8 -16 -4 -9 -1 -24 6 -32 8 -9 8 -13 2 -9 -10 6 -19 -10 -21 -36 -1
-5 -14 -22 -29 -38 -15 -16 -26 -30 -23 -32 2 -2 25 -18 52 -36 27 -19 45 -37
41 -43 -4 -7 -2 -8 4 -4 7 4 12 14 12 21 0 8 20 36 45 62 37 38 45 53 45 83 0
23 7 43 18 52 31 28 92 58 118 58 42 0 94 105 94 194 0 30 6 56 15 65 64 68
85 99 85 123 0 39 -10 58 -30 58 -10 0 -32 11 -49 25 -24 21 -42 26 -95 28
-35 1 -64 6 -63 11 1 5 -13 18 -32 29 -32 19 -34 20 -47 3 -15 -21 -44 -27
-61 -14 -7 6 -20 8 -28 4 -24 -9 -18 8 14 38 28 26 28 27 12 61 -18 40 -27 43
-36 15 -5 -15 -15 -20 -40 -20 -19 0 -55 -7 -81 -16 -52 -17 -64 -11 -64 35 0
14 -10 35 -22 48 -17 18 -19 26 -10 35 23 23 11 28 -72 28 -47 0 -88 5 -91 10
-7 11 -5 12 40 15 17 1 33 -3 37 -9 5 -7 8 -6 8 3 0 10 3 11 14 2 10 -9 16 -9
21 -1 5 8 11 7 23 -2 12 -10 14 -10 8 0 -4 6 -2 12 3 12 6 0 11 5 11 10 0 6
-9 10 -20 10 -11 0 -20 3 -20 8 0 4 -30 8 -67 8 -39 1 -69 6 -71 13 -4 12 -31
15 -55 5 -9 -3 -12 -14 -9 -31 4 -19 1 -24 -9 -21 -8 3 -14 16 -14 31 0 29
-10 45 -12 19z m217 -166 c0 -2 -7 -6 -15 -10 -8 -3 -15 -1 -15 4 0 6 7 10 15
10 8 0 15 -2 15 -4z m40 0 c0 -2 -7 -7 -16 -10 -8 -3 -12 -2 -9 4 6 10 25 14
25 6z m-46 -56 c-6 -6 -10 -3 -10 10 0 13 4 16 10 10 7 -7 7 -13 0 -20z m233
-297 c3 -7 -4 -10 -19 -7 l-23 5 23 -10 c26 -12 29 -36 6 -45 -24 -9 -34 2
-34 40 0 31 3 35 22 32 12 -2 23 -8 25 -15z m66 -15 c-2 -38 12 -35 27 5 l11
32 17 -33 c16 -30 19 -31 34 -15 16 15 16 17 0 29 -15 12 -14 13 11 14 31 0
33 -7 11 -38 -14 -20 -14 -22 0 -22 9 0 16 -4 16 -9 0 -13 -59 -4 -78 11 -12
10 -16 10 -19 1 -5 -15 -43 -18 -43 -3 0 14 -27 12 -33 -2 -3 -7 -6 4 -6 25
-1 36 1 38 27 35 23 -2 27 -7 25 -30z m144 -20 c-2 -13 -4 -5 -4 17 -1 22 1
32 4 23 2 -10 2 -28 0 -40z m33 18 c0 -15 7 -26 18 -29 16 -4 16 -4 -1 -12
-22 -9 -25 -6 -33 33 -4 21 -3 32 5 32 6 0 11 -11 11 -24z"/>
<path d="M1795 1570 c-3 -5 1 -10 10 -10 9 0 13 5 10 10 -3 6 -8 10 -10 10 -2
0 -7 -4 -10 -10z"/>
<path d="M1858 1593 c7 -3 16 -2 19 1 4 3 -2 6 -13 5 -11 0 -14 -3 -6 -6z"/>
<path d="M1096 2095 c15 -13 30 -22 33 -19 7 6 -36 44 -50 44 -7 0 1 -11 17
-25z"/>
<path d="M1850 1930 c-9 -6 -10 -10 -3 -10 6 0 15 5 18 10 8 12 4 12 -15 0z"/>
<path d="M1202 1855 c-15 -33 -15 -58 -1 -49 8 4 9 -3 5 -23 -9 -40 16 -52 33
-17 6 13 17 24 25 24 7 0 19 7 26 15 11 13 6 15 -34 15 -63 0 -58 18 7 22 38
3 47 6 32 11 -11 5 -28 13 -37 18 -29 15 -44 10 -56 -16z"/>
<path d="M1447 1403 c-2 -4 -5 -42 -6 -83 0 -41 -5 -97 -11 -125 -6 -27 -13
-84 -16 -125 -4 -44 -14 -94 -27 -120 -11 -25 -21 -65 -23 -90 -2 -25 -4 -54
-6 -65 -2 -15 2 -19 19 -17 27 4 37 -12 23 -35 -9 -15 -10 -14 -5 7 5 21 4 22
-5 7 -6 -9 -12 -32 -14 -50 -4 -46 -17 -87 -27 -87 -5 0 -9 5 -9 11 0 5 -5 7
-12 3 -8 -5 -7 -10 4 -18 27 -20 31 -54 9 -68 -12 -7 -21 -17 -21 -22 0 -4 7
-2 16 5 14 11 15 10 12 -11 -2 -19 3 -28 22 -37 25 -11 25 -11 -7 -9 -32 3
-32 3 -15 -22 9 -13 18 -20 20 -13 5 16 22 13 22 -4 0 -22 27 -30 54 -16 17 9
21 19 18 40 -2 18 3 34 15 46 24 24 63 77 63 86 0 4 -9 9 -20 12 -28 7 -25 43
4 62 29 19 39 47 37 98 -2 36 -1 37 31 35 32 -3 34 -1 37 42 1 16 8 20 40 20
54 0 93 32 84 68 -3 15 -12 32 -19 37 -7 6 -14 24 -16 40 -2 22 -8 29 -20 27
-10 -2 -18 3 -18 11 0 21 11 27 31 16 15 -7 19 -6 19 6 0 8 17 33 37 56 30 33
33 41 18 39 -65 -7 -72 -1 -51 50 4 11 -6 20 -38 33 -24 10 -54 29 -66 42 -22
23 -25 24 -42 8 -11 -9 -18 -11 -18 -5 0 19 -40 14 -47 -5 -8 -22 -43 -69 -43
-58 0 5 7 16 15 25 13 15 13 20 0 47 -8 17 -17 45 -19 62 -4 34 -20 59 -29 44z
m35 -235 c-8 -8 -9 -4 -5 13 4 13 8 18 11 10 2 -7 -1 -18 -6 -23z m-35 -80
c-3 -7 -5 -2 -5 12 0 14 2 19 5 13 2 -7 2 -19 0 -25z m153 -43 c0 -19 -5 -21
-32 -18 -18 2 -48 4 -65 5 -18 1 -33 2 -33 4 0 22 17 29 70 30 55 1 60 -1 60
-21z m35 6 c16 -19 16 -20 -4 -18 -13 1 -21 8 -21 19 0 23 3 23 25 -1z m38 -1
c-4 -16 -7 -17 -19 -5 -19 18 -18 25 5 25 14 0 18 -5 14 -20z m-226 -85 c-7
-13 -14 -20 -15 -14 -2 5 2 16 8 24 18 21 20 18 7 -10z m-17 -69 c0 -3 -4 -8
-10 -11 -5 -3 -10 -1 -10 4 0 6 5 11 10 11 6 0 10 -2 10 -4z m-8 -48 c-7 -7
-12 -21 -13 -32 0 -13 -3 -16 -6 -8 -6 15 17 65 26 57 2 -3 -1 -11 -7 -17z
m-7 -189 c-7 -37 -11 -31 -12 19 0 35 1 42 8 25 4 -12 6 -32 4 -44z m-39 -125
c-9 -8 -11 -9 -6 -2 6 7 11 21 11 33 1 18 2 18 6 1 3 -10 -2 -25 -11 -32z"/>
<path d="M1340 729 c0 -5 5 -7 10 -4 6 3 10 8 10 11 0 2 -4 4 -10 4 -5 0 -10
-5 -10 -11z"/>
<path d="M1358 413 c7 -3 16 -2 19 1 4 3 -2 6 -13 5 -11 0 -14 -3 -6 -6z"/>
<path d="M1449 399 c-11 -7 -11 -9 -1 -9 8 0 12 -6 10 -12 -7 -19 19 -40 44
-36 23 3 22 4 -8 35 -22 22 -35 29 -45 22z"/>
<path d="M1083 90 c-1 -25 1 -37 4 -27 5 18 5 18 18 0 12 -16 13 -15 8 10 -3
15 -9 25 -13 22 -5 -3 -11 5 -13 17 -2 13 -4 3 -4 -22z"/>
<path d="M1456 121 c-4 -5 3 -7 14 -4 26 7 25 -7 -1 -41 l-20 -26 28 1 c16 1
21 3 11 6 -16 4 -16 6 -2 28 9 13 13 29 9 35 -8 12 -32 13 -39 1z"/>
<path d="M1526 105 c-20 -30 -21 -41 -1 -25 8 6 20 8 27 4 10 -6 10 -4 0 9 -8
9 -11 21 -7 27 13 22 -4 9 -19 -15z"/>
<path d="M1580 110 c-13 -24 2 -60 25 -60 17 0 28 33 20 60 -3 11 -13 20 -20
20 -8 0 -19 -9 -25 -20z m35 -20 c0 -27 -20 -38 -28 -15 -8 20 3 47 17 42 6
-2 11 -14 11 -27z"/>
<path d="M1640 126 c0 -2 11 -6 25 -8 14 -3 25 -1 25 3 0 5 -11 9 -25 9 -14 0
-25 -2 -25 -4z"/>
<path d="M1723 123 c21 -5 21 -7 2 -43 -9 -17 -13 -30 -10 -30 2 0 14 18 25
40 l20 40 -27 -1 c-17 -1 -21 -3 -10 -6z"/>
<path d="M1776 121 c-3 -5 2 -7 12 -4 15 4 19 -1 19 -27 0 -26 -4 -31 -20 -26
-14 3 -17 2 -9 -6 19 -19 40 -1 38 34 -2 32 -27 51 -40 29z"/>
<path d="M1851 124 c21 -6 24 -64 3 -64 -11 0 -13 6 -9 19 3 11 2 22 -3 24 -4
3 -8 -6 -7 -21 0 -20 5 -27 20 -27 16 0 20 7 20 35 0 27 -4 35 -20 37 -13 1
-14 0 -4 -3z"/>
<path d="M1909 113 c-10 -11 -10 -14 -1 -9 8 5 12 0 12 -18 0 -13 -6 -27 -12
-29 -7 -3 -4 -6 7 -6 18 -1 20 4 17 39 -2 22 -5 40 -7 40 -1 0 -9 -8 -16 -17z"/>
<path d="M1970 120 c0 -5 7 -7 15 -4 8 4 15 8 15 10 0 2 -7 4 -15 4 -8 0 -15
-4 -15 -10z"/>
<path d="M2035 121 c-3 -6 0 -9 8 -5 10 3 14 -4 15 -27 1 -27 -2 -30 -20 -26
-15 4 -18 3 -10 -5 20 -20 42 -1 39 33 -2 33 -20 49 -32 30z"/>
<path d="M701 88 c-1 -30 3 -38 17 -38 11 0 13 3 5 8 -6 4 -13 21 -16 37 -4
27 -4 27 -6 -7z"/>
<path d="M741 88 c-1 -30 3 -38 17 -38 11 0 13 3 5 8 -6 4 -13 21 -16 37 -4
27 -4 27 -6 -7z"/>
<path d="M930 85 c0 -19 4 -35 8 -35 4 0 6 16 4 35 -2 19 -6 35 -8 35 -2 0 -4
-16 -4 -35z"/>
<path d="M535 100 c-4 -6 -2 -17 5 -24 8 -11 8 -15 -2 -19 -8 -4 -7 -6 5 -6 9
-1 17 6 17 14 0 8 -5 15 -11 15 -6 0 -9 7 -5 15 6 17 0 20 -9 5z"/>
<path d="M609 78 c4 -28 6 -29 9 -9 2 13 0 27 -5 32 -6 6 -7 -3 -4 -23z"/>
<path d="M970 95 c-7 -8 -9 -22 -6 -31 8 -22 41 -13 42 11 1 15 0 16 -3 3 -5
-21 -33 -24 -33 -5 0 7 5 18 12 25 7 7 9 12 6 12 -3 0 -11 -7 -18 -15z"/>
<path d="M1031 96 c-14 -17 -4 -46 17 -46 13 0 12 3 -3 14 -16 12 -17 16 -6
30 7 9 11 16 8 16 -2 0 -10 -6 -16 -14z"/>
<path d="M1222 101 c-20 -12 -10 -46 13 -46 13 0 20 7 21 20 1 15 0 16 -3 3
-5 -21 -33 -24 -33 -5 0 7 5 18 12 25 14 14 9 15 -10 3z"/>
<path d="M1339 78 c4 -28 6 -29 9 -9 2 13 0 27 -5 32 -6 6 -7 -3 -4 -23z"/>
<path d="M641 78 c-1 -22 4 -28 19 -28 15 0 20 6 19 28 -2 23 -2 24 -6 5 -2
-13 -8 -23 -13 -23 -5 0 -11 10 -13 23 -4 19 -4 18 -6 -5z"/>
<path d="M784 75 c1 -12 9 -21 21 -22 14 -1 15 0 3 3 -9 3 -19 13 -21 22 -3
12 -4 11 -3 -3z"/>
<path d="M842 75 c0 -16 2 -22 5 -12 2 9 2 23 0 30 -3 6 -5 -1 -5 -18z"/>
<path d="M883 82 c12 -13 14 -22 7 -25 -6 -3 -6 -5 2 -3 21 4 19 21 -4 35 -23
14 -23 13 -5 -7z"/>
<path d="M1164 75 c1 -12 9 -21 21 -22 14 -1 15 0 3 3 -9 3 -19 13 -21 22 -3
12 -4 11 -3 -3z"/>
<path d="M1308 75 c6 -32 12 -32 12 0 0 14 -4 25 -9 25 -4 0 -6 -11 -3 -25z"/>
<path d="M1983 94 c9 -3 17 -12 17 -19 0 -8 -8 -15 -17 -18 -14 -3 -13 -4 2
-3 27 1 27 40 0 43 -16 1 -16 1 -2 -3z"/>
<path d="M1656 63 c-6 -14 -5 -15 5 -6 7 7 10 15 7 18 -3 3 -9 -2 -12 -12z"/>
<path d="M1535 60 c-16 -7 -17 -9 -3 -9 9 -1 20 4 23 9 7 11 7 11 -20 0z"/>
</g>
</svg>
