<?xml version="1.0" standalone="no"?>
<!DOCTYPE svg PUBLIC "-//W3C//DTD SVG 20010904//EN"
 "http://www.w3.org/TR/2001/REC-SVG-20010904/DTD/svg10.dtd">
<svg version="1.0" xmlns="http://www.w3.org/2000/svg"
 width="890.000000pt" height="1008.000000pt" viewBox="0 0 890.000000 1008.000000"
 preserveAspectRatio="xMidYMid meet">

<g transform="translate(0.000000,1008.000000) scale(0.100000,-0.100000)"
fill="#000000" stroke="none">
<path d="M122 10055 c-46 -7 -85 -15 -87 -17 -3 -2 -7 -64 -11 -138 l-6 -135
50 -64 50 -64 -25 -34 c-20 -26 -23 -36 -13 -47 9 -12 5 -15 -29 -18 l-40 -3
36 -43 c35 -42 36 -42 60 -27 14 9 26 15 27 13 2 -2 15 -24 31 -51 l27 -47
-21 -68 -21 -67 70 -69 c47 -46 70 -76 70 -92 0 -31 15 -38 42 -20 20 13 23
22 20 60 -4 41 -7 47 -38 58 -19 6 -36 19 -38 27 -3 9 -4 63 -2 121 l2 105
-38 66 c-30 52 -37 73 -32 97 5 24 -3 50 -35 115 l-41 84 19 92 c10 51 21 95
24 98 4 3 35 -9 69 -27 l63 -33 -5 -106 c-5 -100 -4 -109 23 -163 24 -51 31
-58 57 -58 17 0 30 -2 30 -4 0 -1 -5 -18 -11 -35 -11 -32 -10 -35 41 -86 l53
-53 -22 -28 c-11 -14 -21 -30 -21 -35 0 -4 22 -20 50 -36 37 -21 50 -34 50
-51 0 -13 30 -61 73 -115 62 -77 78 -105 99 -174 l25 -82 -28 -42 c-25 -38
-26 -44 -12 -54 14 -11 13 -13 -10 -19 -15 -3 -27 -13 -27 -21 0 -13 51 -77
142 -178 40 -44 48 -48 123 -62 71 -13 84 -19 125 -59 41 -40 65 -50 275 -125
127 -45 237 -81 246 -81 9 0 73 14 143 30 l125 30 167 -126 c166 -126 167
-127 263 -151 53 -13 117 -31 143 -39 41 -13 56 -13 133 0 48 9 92 13 96 10 5
-3 9 -18 9 -35 0 -23 -4 -29 -22 -29 -18 0 1 -23 92 -109 98 -92 113 -110 102
-123 -10 -13 -10 -17 2 -21 10 -4 16 -24 18 -62 3 -49 7 -58 30 -73 25 -15 29
-15 43 -1 14 14 13 18 -7 45 l-23 29 30 -19 c17 -11 62 -46 102 -78 62 -51 72
-63 75 -95 3 -39 24 -57 30 -26 3 14 9 10 29 -20 25 -36 27 -37 40 -18 13 18
20 19 69 11 52 -9 61 -15 86 -56 10 -17 12 -17 36 -2 25 16 26 16 32 -5 3 -12
6 -32 6 -44 0 -19 5 -23 33 -23 33 0 77 23 77 41 0 6 -11 27 -25 47 -14 20
-21 39 -17 43 4 3 44 26 89 50 l83 43 38 -37 c25 -25 47 -37 66 -37 l27 0 -21
-30 c-25 -35 -26 -32 56 -130 l62 -75 -17 -148 -18 -148 34 -20 c18 -11 33
-24 33 -28 0 -4 -21 -40 -46 -79 -43 -67 -49 -73 -98 -87 l-53 -15 1 -42 c1
-37 -2 -43 -24 -48 -21 -5 -25 -13 -28 -47 -3 -37 -6 -41 -34 -47 -18 -3 -49
-11 -70 -17 -38 -10 -38 -10 -32 -50 6 -36 3 -44 -27 -75 -26 -26 -30 -37 -21
-46 19 -19 15 -26 -28 -48 -37 -19 -40 -23 -40 -64 0 -82 11 -135 31 -141 10
-3 32 -19 48 -34 17 -16 33 -26 36 -23 10 10 5 21 -12 24 -14 3 -12 8 9 33
l26 30 8 -29 c4 -17 1 -47 -7 -74 -13 -41 -25 -53 -98 -105 -45 -32 -80 -64
-78 -70 2 -7 14 -47 27 -90 22 -75 22 -78 5 -97 -10 -11 -16 -22 -14 -24 2 -2
35 -24 73 -49 55 -37 82 -64 134 -139 36 -51 83 -133 104 -183 119 -276 134
-304 226 -432 91 -130 93 -134 82 -167 -9 -29 -8 -39 11 -72 12 -22 47 -65 78
-97 48 -49 90 -76 283 -179 201 -107 234 -128 294 -189 l67 -67 8 -84 c4 -46
8 -131 8 -189 1 -93 -3 -120 -35 -225 -34 -116 -35 -122 -30 -239 l6 -120 -69
-212 c-68 -209 -68 -212 -56 -265 11 -51 10 -55 -17 -99 -28 -46 -28 -47 -28
-215 l0 -169 -39 -90 c-117 -268 -128 -290 -157 -305 -16 -8 -30 -15 -31 -15
-1 0 10 -52 24 -114 l25 -114 -41 -78 -42 -78 23 -35 c17 -26 28 -34 42 -30
23 8 86 11 86 5 0 -3 -9 -15 -21 -27 l-21 -22 21 -7 c12 -3 21 -10 21 -15 0
-21 -14 -40 -29 -40 -26 0 -43 -82 -24 -110 8 -12 13 -22 12 -24 -2 -1 -15 -7
-28 -12 l-24 -10 33 -21 33 -21 -41 -28 c-48 -34 -52 -44 -17 -44 14 0 25 -4
25 -10 0 -5 -11 -10 -24 -10 -14 0 -28 -5 -32 -12 -5 -8 -2 -9 9 -5 21 8 21
-3 0 -48 -18 -38 -28 -43 -37 -20 -3 8 -14 15 -25 15 -11 0 -22 6 -24 13 -4 8
-12 4 -26 -13 -28 -35 -26 -50 7 -50 21 0 32 -7 40 -25 11 -23 9 -27 -11 -35
-20 -8 -20 -9 -2 -9 11 -1 36 -11 55 -23 28 -17 31 -23 17 -26 -15 -3 -16 -6
-5 -19 11 -14 10 -15 -10 -9 -12 3 -32 8 -44 11 -22 6 -22 5 1 -8 l24 -15 -23
-7 c-16 -5 -19 -10 -10 -15 9 -6 9 -13 1 -28 -14 -26 -14 -35 0 -27 10 7 38
-21 39 -39 0 -4 -11 -5 -25 -2 -26 7 -26 6 -11 -22 8 -16 12 -40 9 -53 -6 -23
-6 -24 14 -6 18 16 21 16 33 2 11 -13 8 -17 -20 -26 -27 -10 -30 -13 -16 -21
13 -7 13 -12 4 -28 -9 -14 -9 -22 1 -34 19 -23 33 -20 30 7 -4 25 7 47 22 47
6 0 8 -8 4 -19 -4 -13 0 -20 15 -24 24 -6 26 -29 4 -48 -11 -9 -17 -10 -23 -1
-3 6 -17 10 -29 9 -17 -1 -22 -7 -22 -30 0 -24 3 -28 18 -21 9 5 48 9 87 9 60
0 70 -3 73 -18 5 -26 -27 -59 -50 -51 -10 3 -18 3 -18 0 0 -7 61 -39 65 -34 1
2 11 24 22 49 19 44 23 46 89 65 38 10 81 17 97 16 15 -2 27 0 27 3 0 4 -14
27 -32 52 l-31 46 24 20 c13 11 35 28 48 38 19 15 22 22 13 31 -7 7 -12 17
-12 22 0 6 7 3 14 -7 19 -25 37 -14 66 40 20 39 38 55 98 89 87 49 88 50 95
91 6 31 5 32 -34 40 -32 6 -48 18 -74 54 l-34 45 37 42 c30 35 48 46 102 60
l65 17 16 60 c14 55 19 62 68 91 l52 31 -27 20 -27 20 29 7 c23 6 32 3 42 -13
13 -18 16 -19 37 -5 16 10 21 21 18 39 -5 23 -6 23 -38 8 -31 -15 -36 -15 -59
1 -16 10 -26 26 -26 41 0 25 20 125 25 125 1 0 28 -11 58 -25 53 -23 60 -24
124 -12 l68 12 17 80 c9 44 21 81 27 83 6 2 8 16 5 32 l-6 28 58 -14 c33 -7
73 -12 89 -9 250 37 298 56 388 151 67 71 75 109 31 141 l-26 19 19 38 18 39
-35 26 c-89 68 -85 61 -70 130 7 34 16 64 20 66 4 3 4 -11 0 -29 -13 -57 24
-97 119 -130 77 -27 80 -27 180 -15 l101 12 95 86 c76 69 104 102 136 161 26
48 68 102 116 151 64 65 74 80 68 100 l-7 23 30 -25 c17 -13 31 -27 31 -32 1
-4 -34 -42 -76 -83 -47 -46 -64 -67 -43 -53 52 35 139 126 189 200 30 43 66
79 109 109 60 42 67 50 94 120 26 64 29 83 23 132 -6 55 -4 60 27 99 22 28 29
43 21 46 -22 8 -14 21 8 16 15 -4 34 7 72 44 29 28 80 69 114 92 53 35 70 41
113 41 48 0 57 4 112 50 65 54 69 56 117 39 28 -10 35 -9 55 10 26 25 41 27
32 6 -3 -8 0 -15 7 -16 7 0 31 -2 54 -5 39 -5 41 -4 47 23 5 22 20 35 64 58
51 27 57 33 56 60 -1 24 18 55 91 147 79 101 94 127 110 185 9 38 30 84 46
105 16 20 33 47 39 60 5 13 37 151 70 308 33 157 63 293 66 303 7 24 21 21 27
-5 6 -22 6 -22 28 -2 23 20 196 257 319 436 67 99 74 114 85 183 15 91 -1 278
-27 316 -12 19 -32 27 -94 39 l-79 16 -61 86 c-41 59 -86 106 -137 147 l-75
59 -128 8 c-122 6 -130 8 -186 42 l-58 35 -74 -61 c-41 -33 -76 -58 -79 -56
-10 10 6 89 21 107 14 16 13 17 -9 17 l-24 0 24 19 25 19 -19 42 -18 41 -22
-27 -22 -27 -6 31 c-5 26 -11 32 -31 32 -16 0 -30 8 -37 21 -9 17 -13 19 -20
8 -6 -10 -9 -8 -9 10 0 20 -2 22 -15 11 -13 -11 -23 -8 -59 19 -46 32 -66 39
-66 21 0 -6 -14 -4 -35 4 l-35 15 -25 -50 -26 -49 23 -9 22 -8 -23 -13 c-20
-10 -25 -10 -33 4 -14 25 -24 20 -63 -34 -42 -58 -58 -64 -44 -18 13 47 13 47
-32 37 -78 -18 -64 -2 16 17 l80 20 27 69 c14 39 25 71 24 72 -3 4 -210 43
-212 40 -1 -1 -14 -27 -30 -57 -27 -53 -29 -54 -32 -26 l-4 29 -23 -29 -24
-29 -1 33 0 33 -25 -28 -26 -28 17 40 c8 22 19 49 24 61 5 11 42 52 84 89 50
45 72 71 64 76 -9 6 -9 13 0 34 17 38 17 39 -36 64 l-47 22 -33 139 c-34 143
-54 183 -66 134 -5 -20 -94 -161 -153 -243 -1 -2 -23 2 -48 8 -38 9 -49 9 -69
-5 -23 -14 -27 -14 -50 1 -14 10 -26 21 -26 26 0 5 13 36 30 68 l29 59 -32 96
-32 97 29 51 c23 41 26 52 15 59 -8 5 -93 9 -189 9 l-175 0 -74 66 -74 66 -24
-29 -24 -28 5 25 c19 99 20 96 -18 137 -55 61 -166 123 -221 123 l-45 0 0 53
c0 52 -1 52 -47 81 -40 24 -54 27 -93 22 -43 -5 -46 -4 -77 33 l-33 39 58 20
57 20 -140 1 c-121 0 -136 -2 -111 -12 30 -13 30 -13 -45 -35 -41 -12 -80 -22
-87 -22 -7 0 -44 16 -82 35 l-70 35 -116 -8 c-124 -8 -122 -9 -143 45 -11 28
-20 33 -80 48 -80 19 -81 20 -114 69 l-26 39 -11 -27 c-15 -39 -13 -44 15 -38
18 3 25 0 25 -10 0 -11 -7 -14 -23 -11 -15 3 -57 -12 -114 -41 l-91 -45 -19
47 -20 48 49 29 c26 16 47 33 45 38 -1 4 -16 17 -32 27 l-31 19 -97 -74 -97
-75 -59 6 c-54 6 -59 5 -66 -15 -6 -21 -20 -22 -72 -6 -16 5 -101 -90 -109
-122 -4 -13 -4 -37 -1 -53 6 -27 1 -33 -74 -86 l-81 -57 6 -38 c3 -22 4 -39 2
-39 -2 0 -33 30 -68 66 -47 50 -81 76 -135 100 -105 49 -140 47 -248 -18 l-86
-51 -45 21 c-52 26 -55 26 -51 10 2 -12 -19 -13 -48 -4 -17 6 -195 272 -195
291 0 10 21 97 46 194 44 167 46 178 34 229 -12 53 -12 54 -78 84 -116 52
-128 53 -324 31 -165 -18 -182 -19 -240 -4 -35 8 -64 16 -66 17 -1 0 5 45 13
100 8 54 15 105 15 111 0 21 72 94 87 89 7 -3 20 6 29 20 18 26 30 23 36 -11
2 -13 14 5 35 53 30 67 31 72 12 72 -10 0 -19 4 -19 8 0 5 27 48 60 98 33 49
60 92 60 95 0 3 -33 11 -72 17 -68 10 -81 9 -193 -19 -66 -17 -124 -34 -128
-38 -4 -4 -24 -50 -43 -102 -29 -79 -44 -103 -90 -150 l-55 -55 -47 9 c-43 9
-59 6 -169 -30 l-121 -41 -38 39 c-32 32 -45 39 -79 39 l-40 0 -82 197 c-46
107 -83 205 -83 217 0 11 14 90 30 175 17 85 30 155 30 157 0 1 13 5 28 9 19
4 34 17 45 39 l16 34 -57 11 c-130 26 -129 25 -143 89 -9 43 -108 248 -135
281 -2 2 -24 7 -49 12 -45 8 -48 8 -112 -42 -36 -27 -68 -48 -72 -47 -78 40
-81 42 -82 70 -1 15 -3 33 -4 38 -1 6 -3 19 -4 29 0 11 -24 45 -52 75 l-51 56
-78 0 c-73 0 -80 -2 -100 -27 -20 -26 -25 -27 -140 -31 l-119 -4 -141 56 c-77
31 -141 55 -143 55 -1 -1 -39 -7 -85 -14z m4538 -2427 c42 -89 40 -111 -12
-131 -23 -9 -42 -16 -43 -14 -16 19 -55 89 -55 97 0 10 71 110 78 110 1 0 16
-28 32 -62z m889 -1333 c81 -5 87 -7 216 -77 132 -72 135 -74 233 -188 54 -63
104 -114 110 -112 7 1 12 -2 12 -6 0 -11 -253 -101 -265 -94 -5 3 19 15 53 26
55 17 64 24 69 48 4 21 11 28 28 28 21 0 16 10 -49 106 l-71 107 -125 68 -125
67 -167 4 c-93 2 -168 6 -168 10 0 14 58 26 110 22 30 -2 93 -6 139 -9z m1037
-168 c6 -8 14 -47 10 -47 -6 0 -77 47 -86 57 -3 3 13 2 35 -2 22 -4 41 -8 41
-8z m344 -61 c0 -2 -27 -20 -59 -40 -47 -29 -69 -36 -109 -36 l-51 0 -21 -57
c-11 -32 -23 -64 -26 -72 -12 -35 -12 3 0 72 13 76 13 77 -8 78 -19 1 -19 2 3
8 l24 6 -25 12 c-22 10 -33 7 -87 -23 -33 -18 -61 -31 -61 -27 0 4 14 22 32
40 30 31 37 33 96 33 71 0 137 -24 128 -46 -10 -25 37 -15 99 21 63 36 65 37
65 31z m-1442 -116 c58 -64 68 -78 46 -70 -20 8 -29 8 -35 -1 -4 -8 -19 8 -39
44 -27 47 -38 58 -77 71 -26 9 -78 17 -117 18 l-71 2 70 6 c157 15 141 19 223
-70z m902 47 c0 -2 -29 -29 -65 -61 l-65 -57 -56 12 c-78 17 -76 27 6 25 69
-3 70 -2 117 40 42 38 63 51 63 41z m-1786 -66 c3 -4 -16 -11 -42 -14 -26 -3
-63 -9 -82 -13 -34 -6 -34 -6 -13 10 12 9 27 14 35 11 7 -3 27 -1 43 4 40 12
53 13 59 2z m481 -21 c-15 -16 -30 -20 -84 -19 l-66 2 70 8 c44 5 74 13 80 23
5 8 11 13 14 11 2 -3 -4 -14 -14 -25z m-183 -60 c-9 -16 -19 -25 -21 -19 -3 9
26 49 35 49 2 0 -5 -13 -14 -30z m-78 -28 c36 -53 32 -65 -7 -19 -28 33 -40
39 -92 46 l-60 9 66 1 c66 1 66 1 93 -37z m828 12 c50 -25 53 -26 81 -9 50 30
38 11 -19 -28 -30 -21 -58 -35 -64 -32 -17 11 -11 45 8 45 9 1 -3 12 -28 25
-61 33 -42 32 22 -1z m578 -2958 l95 -13 -160 -1 c-143 -1 -158 0 -141 13 24
18 77 18 206 1z m-302 -187 c-22 -50 -43 -115 -47 -144 -7 -49 -14 -61 -77
-127 -49 -52 -70 -82 -72 -102 -3 -45 -12 -44 -12 0 0 34 7 46 49 88 40 39 50
57 56 93 9 59 14 73 30 73 15 0 25 22 25 54 0 13 8 34 19 47 10 13 28 43 40
67 37 72 31 46 -11 -49z"/>
<path d="M4872 9601 c-10 -6 -10 -10 3 -21 13 -11 15 -9 15 9 0 24 0 24 -18
12z"/>
<path d="M3934 9547 c-1 -12 -5 -33 -9 -46 -6 -16 -5 -22 3 -17 14 9 26 66 16
76 -5 5 -10 -1 -10 -13z"/>
<path d="M4037 9399 c7 -7 15 -10 18 -7 3 3 -2 9 -12 12 -14 6 -15 5 -6 -5z"/>
<path d="M3807 9383 c-2 -10 -8 -25 -11 -34 -9 -21 36 -43 53 -26 17 17 13 31
-13 56 -22 20 -24 21 -29 4z"/>
<path d="M3850 9279 c0 -5 5 -7 10 -4 6 3 10 8 10 11 0 2 -4 4 -10 4 -5 0 -10
-5 -10 -11z"/>
<path d="M3345 9154 c-44 -8 -111 -19 -148 -25 -65 -10 -68 -13 -88 -50 -11
-22 -30 -44 -42 -49 -20 -8 -18 -9 11 -9 22 -1 57 14 113 49 77 49 83 51 141
48 38 -2 63 -8 66 -15 2 -8 -7 -13 -25 -13 -25 -1 -26 -2 -11 -13 9 -7 86 -26
170 -41 84 -15 165 -30 181 -32 17 -4 40 -22 63 -52 32 -42 41 -48 87 -54 32
-4 56 -13 65 -25 12 -16 9 -21 -22 -48 l-36 -30 160 3 c124 3 170 8 207 22 54
20 53 21 -57 48 -68 16 -75 21 -78 44 -3 24 -9 27 -73 38 -50 9 -96 26 -162
62 -297 162 -340 174 -522 142z"/>
<path d="M3240 9005 c0 -19 5 -26 17 -23 25 5 27 25 4 38 -19 10 -21 8 -21
-15z"/>
<path d="M4385 8945 l-30 -13 26 -1 c15 -1 29 6 33 14 3 8 4 15 3 15 -1 -1
-15 -7 -32 -15z"/>
<path d="M4420 8793 l-35 -16 40 -12 c36 -11 40 -15 37 -41 -2 -20 4 -36 17
-49 28 -25 27 -47 -1 -41 -87 18 -242 13 -218 -7 54 -43 66 -46 136 -37 151
20 145 20 187 -19 l38 -36 43 49 42 49 50 -7 c194 -27 206 -28 220 -9 7 10 14
20 14 23 0 3 -31 17 -70 30 -62 21 -90 40 -60 40 6 0 10 4 10 10 0 5 -7 7 -16
3 -10 -4 -26 5 -43 24 -26 29 -30 30 -181 42 -84 7 -158 15 -164 17 -6 2 -27
-4 -46 -13z"/>
<path d="M5134 8594 c3 -9 6 -18 6 -20 0 -2 33 -4 73 -4 61 0 77 3 92 20 18
20 17 20 -80 20 -84 0 -96 -2 -91 -16z"/>
<path d="M5816 8367 c-16 -12 -16 -13 1 -29 16 -14 21 -15 37 -3 16 12 17 17
6 30 -15 18 -21 19 -44 2z"/>
<path d="M5887 7683 c-20 -3 -27 -9 -23 -19 3 -8 8 -20 11 -27 3 -8 -4 -18
-17 -25 -20 -9 -16 -11 30 -11 47 -1 52 1 52 22 0 12 3 32 6 45 7 23 3 24 -59
15z"/>
<path d="M2090 6325 c-11 -13 -8 -21 19 -49 l33 -34 -26 -17 c-34 -22 -33 -32
4 -37 30 -5 70 14 70 33 0 13 -71 119 -80 119 -4 0 -13 -7 -20 -15z"/>
<path d="M7282 6312 c-22 -7 -22 -7 -3 -19 16 -10 22 -9 37 8 18 21 11 23 -34
11z"/>
<path d="M4260 1219 c-18 -59 -19 -73 -8 -80 17 -11 22 -11 53 3 24 11 26 15
23 77 -3 59 -5 66 -25 69 -19 3 -24 -6 -43 -69z"/>
<path d="M4345 1011 c-6 -11 9 -23 19 -14 9 9 7 23 -3 23 -6 0 -12 -4 -16 -9z"/>
<path d="M4205 880 c3 -5 8 -10 11 -10 2 0 4 5 4 10 0 6 -5 10 -11 10 -5 0 -7
-4 -4 -10z"/>
<path d="M4201 647 c-9 -12 -7 -16 9 -20 21 -5 25 0 11 21 -6 10 -10 10 -20
-1z"/>
<path d="M4206 583 c-5 -23 -13 -33 -27 -33 -22 0 -25 -13 -6 -28 10 -8 16 -6
26 9 16 27 26 17 11 -10 -9 -17 -8 -21 5 -21 16 0 18 31 6 85 l-7 30 -8 -32z"/>
<path d="M4160 474 c0 -8 5 -12 10 -9 6 3 10 10 10 16 0 5 -4 9 -10 9 -5 0
-10 -7 -10 -16z"/>
<path d="M4605 255 c-5 -2 -22 -6 -37 -9 -19 -4 -28 -13 -28 -26 0 -15 9 -21
42 -26 l41 -7 -28 -23 c-33 -26 -33 -25 14 -44 29 -12 31 -15 17 -25 -9 -7
-16 -14 -16 -17 0 -3 41 -8 91 -12 89 -7 204 8 194 24 -3 4 -40 20 -83 35 -76
27 -80 29 -108 81 -25 47 -33 54 -59 53 -16 0 -34 -2 -40 -4z"/>
<path d="M4325 241 c-3 -5 -1 -12 4 -15 5 -3 11 1 15 9 6 16 -9 21 -19 6z"/>
<path d="M4360 231 c-7 -13 -7 -22 0 -26 5 -3 10 -2 10 3 0 4 15 16 33 25 l32
16 -32 0 c-22 1 -36 -5 -43 -18z"/>
<path d="M4311 181 c-24 -16 5 -42 38 -35 42 10 45 16 20 30 -29 16 -39 17
-58 5z"/>
<path d="M4515 160 c-4 -7 -2 -16 6 -21 18 -11 23 -4 11 17 -7 12 -11 13 -17
4z"/>
<path d="M4445 130 c3 -5 11 -10 16 -10 6 0 7 5 4 10 -3 6 -11 10 -16 10 -6 0
-7 -4 -4 -10z"/>
<path d="M4460 101 c-24 -7 -24 -7 9 -14 48 -10 131 -9 131 2 0 5 -13 11 -30
13 -16 3 -30 1 -30 -4 0 -4 -9 -8 -20 -8 -11 0 -20 5 -20 10 0 11 -4 11 -40 1z"/>
<path d="M4570 35 c7 -9 16 -12 19 -7 3 5 15 12 26 15 11 3 3 5 -19 6 -34 1
-37 -1 -26 -14z"/>
<path d="M4635 20 c3 -5 13 -10 21 -10 8 0 12 4 9 10 -3 6 -13 10 -21 10 -8 0
-12 -4 -9 -10z"/>
</g>
</svg>
